<svg width="106.715" height="64.098" viewBox="0 0 106.715 64.098" xmlns="http://www.w3.org/2000/svg"><g id="svgGroup" stroke-linecap="round" fill-rule="nonzero" font-size="9pt" stroke="#ffffff" stroke-width=".5" fill="#ffffff" style="stroke:#ffffff;stroke-width:.5;fill:#ffffff"><path d="M 48.12 61.089 L 57.129 43.218 A 2.553 2.553 0 0 1 57.239 42.779 Q 57.349 42.412 57.532 41.973 A 12.852 12.852 0 0 0 57.861 41.094 Q 58.008 40.655 58.081 40.362 L 58.081 40.215 L 58.081 40.069 A 46.3 46.3 0 0 1 55.518 39.776 A 14.193 14.193 0 0 1 52.441 39.007 A 9.288 9.288 0 0 1 49.878 37.578 Q 48.779 36.7 48.779 35.161 Q 48.779 33.697 49.805 32.781 Q 50.83 31.866 52.295 31.316 A 14.28 14.28 0 0 1 55.298 30.547 Q 56.836 30.327 57.861 30.327 A 62.633 62.633 0 0 1 60.205 30.364 A 15.931 15.931 0 0 1 62.622 30.694 L 62.622 29.668 L 73.535 8.501 L 63.501 10.699 L 61.304 10.699 A 40.081 40.081 0 0 1 59.18 10.625 A 12.756 12.756 0 0 1 56.616 10.222 A 6.509 6.509 0 0 1 54.456 9.234 A 2.277 2.277 0 0 1 53.54 7.256 Q 53.54 5.572 54.016 4.217 A 2.209 2.209 0 0 1 56.397 2.862 Q 57.202 2.862 57.532 3.448 A 3.82 3.82 0 0 1 57.971 4.766 A 9.332 9.332 0 0 0 58.301 6.194 A 1.543 1.543 0 0 0 59.18 7.183 L 59.802 7.183 A 11.519 11.519 0 0 1 60.681 7.22 A 11.949 11.949 0 0 0 61.597 7.256 L 62.256 7.256 A 24.952 24.952 0 0 0 65.076 7.11 Q 66.357 6.963 67.566 6.707 A 17.996 17.996 0 0 0 69.983 6.011 Q 71.191 5.572 72.73 4.986 A 6.358 6.358 0 0 0 74.634 3.777 A 128.955 128.955 0 0 0 76.502 2.093 Q 77.417 1.25 78.369 0.628 Q 79.321 0.005 80.347 0.005 A 1.299 1.299 0 0 1 81.738 1.543 Q 81.738 2.129 81.665 2.569 A 3.744 3.744 0 0 1 81.299 3.594 L 66.65 30.694 L 66.65 31.792 A 24.216 24.216 0 0 1 73.828 35.674 L 74.268 35.674 L 86.279 33.916 L 87.012 33.623 Q 87.232 32.964 87.781 31.573 A 156.906 156.906 0 0 1 88.989 28.606 A 457.144 457.144 0 0 0 90.234 25.603 A 17.482 17.482 0 0 0 90.967 23.589 A 2.405 2.405 0 0 0 91.333 22.857 A 2.405 2.405 0 0 1 91.699 22.124 L 98.071 5.718 Q 98.364 5.205 99.06 4.766 A 2.368 2.368 0 0 1 100.269 4.326 A 1.132 1.132 0 0 1 101.477 5.169 A 5.228 5.228 0 0 1 101.733 6.67 L 101.733 7.183 L 94.19 26.446 Q 93.897 27.032 93.494 27.947 Q 93.091 28.863 92.725 29.742 Q 92.358 30.62 92.102 31.426 Q 91.846 32.232 91.699 32.525 A 3.005 3.005 0 0 0 92.358 32.415 Q 92.798 32.305 93.311 32.232 Q 93.823 32.159 94.299 32.012 A 1.911 1.911 0 0 0 94.849 31.792 A 25.376 25.376 0 0 0 96.533 31.206 A 74.626 74.626 0 0 0 99.023 30.218 A 74.626 74.626 0 0 1 101.514 29.229 A 19.523 19.523 0 0 0 103.125 28.57 A 3.294 3.294 0 0 1 104.187 27.544 A 2.643 2.643 0 0 1 105.615 27.105 A 1.121 1.121 0 0 1 106.384 27.398 A 1.023 1.023 0 0 1 106.714 28.203 Q 106.714 29.009 106.128 29.668 A 10.189 10.189 0 0 1 104.736 30.95 A 7.42 7.42 0 0 1 103.052 31.939 Q 102.173 32.305 101.733 32.525 L 90.381 36.48 L 83.496 55.376 L 83.093 57.39 A 15.67 15.67 0 0 1 82.361 59.917 Q 81.885 61.162 81.152 62.041 Q 80.42 62.92 79.395 62.92 Q 78.296 62.92 77.71 61.455 Q 77.124 59.991 76.868 57.757 A 106.786 106.786 0 0 1 76.428 52.813 A 63.92 63.92 0 0 0 75.842 47.466 Q 75.44 44.829 74.634 42.779 Q 73.828 40.728 72.363 39.702 A 11.529 11.529 0 0 1 71.704 39.629 A 11.529 11.529 0 0 0 71.045 39.556 Q 70.752 39.556 70.203 39.629 Q 69.653 39.702 69.58 39.702 Q 68.848 39.776 67.676 39.886 A 234.119 234.119 0 0 0 65.442 40.105 A 153.269 153.269 0 0 1 63.574 40.288 L 62.769 40.362 L 62.476 40.728 L 54.932 56.768 Q 54.639 58.745 53.613 60.137 A 21.528 21.528 0 0 0 51.709 63.286 A 5.763 5.763 0 0 0 50.794 63.433 A 6.489 6.489 0 0 1 49.951 63.579 A 2.515 2.515 0 0 1 49.475 63.433 A 1.99 1.99 0 0 0 48.853 63.286 L 48.413 63.067 Q 48.12 62.92 48.12 62.847 L 48.12 61.089 Z M 76.758 38.897 L 76.758 39.117 A 8.489 8.489 0 0 0 77.271 41.424 A 104.374 104.374 0 0 0 78.479 44.903 A 240.073 240.073 0 0 1 79.797 48.601 A 25.581 25.581 0 0 1 80.64 51.421 A 28.954 28.954 0 0 1 80.969 50.286 A 129.317 129.317 0 0 1 81.519 48.528 A 56.428 56.428 0 0 0 82.031 46.844 A 12.809 12.809 0 0 1 82.398 45.708 Q 82.471 45.635 82.617 45.342 Q 82.764 45.049 82.837 44.976 A 22.644 22.644 0 0 1 83.496 43.145 Q 83.936 42.046 84.338 40.948 A 772.165 772.165 0 0 0 85.034 39.043 L 85.327 38.238 L 85.327 37.505 L 84.961 37.505 Q 84.741 37.505 84.595 37.578 Q 84.155 37.578 83.02 37.798 A 146.813 146.813 0 0 1 80.64 38.238 A 146.813 146.813 0 0 0 78.259 38.677 Q 77.124 38.897 76.758 38.897 Z M 60.571 34.502 L 60.571 34.283 A 9.165 9.165 0 0 1 59.546 34.099 A 9.165 9.165 0 0 0 58.521 33.916 A 30.87 30.87 0 0 0 57.788 33.953 A 13.122 13.122 0 0 0 56.287 34.136 Q 55.444 34.283 54.712 34.502 A 1.076 1.076 0 0 0 53.906 35.015 Q 54.932 35.821 56.433 36.114 A 14.762 14.762 0 0 0 59.253 36.407 Q 59.839 36.407 60.205 35.711 A 2.686 2.686 0 0 0 60.571 34.502 Z M 64.453 36.407 L 67.383 36.407 L 67.749 36.114 A 4.755 4.755 0 0 0 66.65 35.528 Q 66.065 35.308 65.405 35.308 A 0.912 0.912 0 0 0 64.453 36.407 Z M 20.361 43.584 L 15.674 60.357 A 1.918 1.918 0 0 1 14.795 61.346 A 2.491 2.491 0 0 1 13.477 61.822 A 1.695 1.695 0 0 1 12.232 61.309 A 1.695 1.695 0 0 1 11.719 60.064 A 4.225 4.225 0 0 1 11.755 59.698 A 4.225 4.225 0 0 0 11.792 59.331 L 16.26 41.46 L 15.674 41.46 A 151.484 151.484 0 0 1 10.547 43.438 A 15.102 15.102 0 0 1 5.347 44.317 A 4.915 4.915 0 0 1 3.186 43.841 Q 2.197 43.365 1.502 42.522 Q 0.806 41.68 0.403 40.618 Q 0 39.556 0 38.384 A 12.587 12.587 0 0 1 0.806 33.953 A 12.052 12.052 0 0 1 3.113 30.108 A 11.902 11.902 0 0 1 6.628 27.398 Q 8.643 26.372 11.06 26.372 A 14.784 14.784 0 0 1 14.795 26.848 A 8.849 8.849 0 0 1 18.164 28.57 L 18.823 27.105 L 22.046 6.451 A 2.618 2.618 0 0 1 22.852 5.242 Q 23.511 4.619 24.023 4.619 A 1.932 1.932 0 0 1 25.891 5.681 A 4.798 4.798 0 0 1 26.44 7.915 L 26.44 8.208 L 22.412 31.499 L 22.412 33.111 A 0.451 0.451 0 0 1 22.669 33.184 A 0.186 0.186 0 0 0 22.769 33.221 A 0.114 0.114 0 0 0 22.852 33.184 A 0.901 0.901 0 0 0 23.181 33.001 Q 23.438 32.818 23.767 32.598 L 24.426 32.159 A 3.289 3.289 0 0 0 24.902 31.792 A 0.445 0.445 0 0 0 25.122 31.682 A 2.141 2.141 0 0 0 25.342 31.499 Q 29.956 28.13 34.534 24.541 A 83.746 83.746 0 0 0 43.14 16.778 Q 43.652 16.265 44.678 14.69 A 87.747 87.747 0 0 1 46.912 11.431 A 52.625 52.625 0 0 1 49.219 8.428 A 2.927 2.927 0 0 1 51.05 7.11 A 1.819 1.819 0 0 1 52.332 7.622 A 1.723 1.723 0 0 1 52.881 8.941 A 0.51 0.51 0 0 1 52.844 9.16 A 0.325 0.325 0 0 0 52.808 9.307 A 2.017 2.017 0 0 1 52.661 9.856 A 6.114 6.114 0 0 1 52.441 10.406 A 16.487 16.487 0 0 1 51.746 11.614 Q 51.27 12.383 50.794 13.116 A 133.856 133.856 0 0 1 49.951 14.397 Q 49.585 14.947 49.585 15.02 L 40.357 24.322 L 23.511 36.773 Q 23.218 37.066 23.181 37.176 A 1.895 1.895 0 0 0 23.145 37.652 L 23.145 38.018 Q 23.145 38.164 23.218 38.238 L 37.061 59.112 A 2.548 2.548 0 0 0 37.573 60.21 A 25.923 25.923 0 0 0 38.306 61.053 Q 38.672 61.455 38.928 61.931 A 2.362 2.362 0 0 1 39.185 63.067 A 1.002 1.002 0 0 1 38.928 63.982 A 3.245 3.245 0 0 1 37.866 64.092 A 2.945 2.945 0 0 1 36.328 63.653 A 6.609 6.609 0 0 1 34.937 62.517 A 7.828 7.828 0 0 1 33.801 60.979 Q 33.325 60.137 33.106 59.478 L 20.361 43.584 Z M 3.516 37.359 A 4.844 4.844 0 0 0 4.102 39.739 A 2.141 2.141 0 0 0 6.152 40.801 A 12.039 12.039 0 0 0 9.082 40.435 Q 10.547 40.069 11.939 39.483 Q 13.33 38.897 14.648 38.164 A 540.509 540.509 0 0 0 17.139 36.773 A 10.509 10.509 0 0 1 17.175 36.15 A 13.456 13.456 0 0 0 17.212 35.601 Q 17.212 34.356 16.589 33.367 Q 15.967 32.378 15.051 31.682 Q 14.136 30.987 13.001 30.657 Q 11.865 30.327 10.767 30.327 A 7.611 7.611 0 0 0 7.983 30.84 Q 6.665 31.353 5.676 32.305 A 7.259 7.259 0 0 0 4.102 34.539 A 6.702 6.702 0 0 0 3.516 37.359 Z"/></g></svg>